<?xml version="1.0" encoding="utf-8"?>
<svg viewBox="0 0 45 41" xmlns="http://www.w3.org/2000/svg"><style>:root>svg{display:none}:root>svg:target{display:block}</style><svg viewBox="0 0 28 28" id="fb" xmlns="http://www.w3.org/2000/svg"><g clip-path="url(#aa)"><path d="M24.5 0h-21C1.57 0 0 1.57 0 3.5v21C0 26.43 1.57 28 3.5 28H14v-9.625h-3.5V14H14v-3.5c0-2.9 2.35-5.25 5.25-5.25h3.5v4.375H21c-.966 0-1.75-.091-1.75.875V14h4.375l-1.75 4.375H19.25V28h5.25c1.93 0 3.5-1.57 3.5-3.5v-21C28 1.57 26.43 0 24.5 0Z"/></g><defs><clipPath id="aa"><path fill="#fff" d="M0 0h28v28H0z"/></clipPath></defs></svg><svg viewBox="0 0 45 31" id="ic-bird" xmlns="http://www.w3.org/2000/svg"><path d="M11.316 5.229.748 2.24l10.568.747 5.918-1.494 5.918 4.482 4.65-2.615 5.073.374L41.752 0l-1.268 3.735h4.227L28.647 13.819l.846 5.603 5.918 7.47-5.073-1.868L32.03 31 16.811 9.71V7.47l-5.495-2.241Z"/></svg><svg viewBox="0 0 28 28" id="ic-fb" xmlns="http://www.w3.org/2000/svg"><g clip-path="url(#ca)"><path d="M24.5 0h-21C1.57 0 0 1.57 0 3.5v21C0 26.43 1.57 28 3.5 28H14v-9.625h-3.5V14H14v-3.5c0-2.9 2.35-5.25 5.25-5.25h3.5v4.375H21c-.966 0-1.75-.091-1.75.875V14h4.375l-1.75 4.375H19.25V28h5.25c1.93 0 3.5-1.57 3.5-3.5v-21C28 1.57 26.43 0 24.5 0Z"/></g><defs><clipPath id="ca"><path fill="#fff" d="M0 0h28v28H0z"/></clipPath></defs></svg><svg viewBox="0 0 29 29" id="ic-inst" xmlns="http://www.w3.org/2000/svg"><g clip-path="url(#da)"><path d="M21.15 0H7.85C3.521 0 0 3.521 0 7.85v13.3C0 25.48 3.521 29 7.85 29h13.3C25.48 29 29 25.479 29 21.15V7.85C29 3.521 25.479 0 21.15 0ZM14.5 22.43c-4.372 0-7.93-3.558-7.93-7.93s3.558-7.93 7.93-7.93 7.93 3.558 7.93 7.93-3.558 7.93-7.93 7.93Zm8.119-13.99a2.345 2.345 0 0 1-2.343-2.343 2.346 2.346 0 0 1 2.343-2.343 2.346 2.346 0 0 1 2.343 2.343 2.346 2.346 0 0 1-2.343 2.344Z"/><path d="M14.5 8.27a6.236 6.236 0 0 0-6.23 6.23 6.237 6.237 0 0 0 6.23 6.23 6.237 6.237 0 0 0 6.23-6.23 6.236 6.236 0 0 0-6.23-6.23ZM22.619 5.454a.644.644 0 1 0 .002 1.288.644.644 0 0 0-.002-1.288Z"/></g><defs><clipPath id="da"><path fill="#fff" d="M0 0h29v29H0z"/></clipPath></defs></svg><svg viewBox="0 0 41 41" id="ic-rf" xmlns="http://www.w3.org/2000/svg"><path d="M0 6.833V34.166h41V6.833H0Z" fill="#F0F0F0"/><path d="M41 6.833H0v27.334h41V6.833Z" fill="#0052B4"/><path d="M41 6.833H0v9.111h41v-9.11Z" fill="#F0F0F0"/><path d="M41 25.055H0v9.111h41v-9.11Z" fill="#D80027"/></svg><svg viewBox="0 0 29 29" id="insta" xmlns="http://www.w3.org/2000/svg"><g clip-path="url(#fa)"><path d="M21.15 0H7.85C3.521 0 0 3.521 0 7.85v13.3C0 25.48 3.521 29 7.85 29h13.3C25.48 29 29 25.479 29 21.15V7.85C29 3.521 25.479 0 21.15 0ZM14.5 22.43c-4.372 0-7.93-3.558-7.93-7.93s3.558-7.93 7.93-7.93 7.93 3.558 7.93 7.93-3.558 7.93-7.93 7.93Zm8.119-13.99a2.345 2.345 0 0 1-2.343-2.343 2.346 2.346 0 0 1 2.343-2.343 2.346 2.346 0 0 1 2.343 2.343 2.346 2.346 0 0 1-2.343 2.344Z"/><path d="M14.5 8.27a6.236 6.236 0 0 0-6.23 6.23 6.237 6.237 0 0 0 6.23 6.23 6.237 6.237 0 0 0 6.23-6.23 6.236 6.236 0 0 0-6.23-6.23ZM22.619 5.454a.644.644 0 1 0 .002 1.288.644.644 0 0 0-.002-1.288Z"/></g><defs><clipPath id="fa"><path fill="#fff" d="M0 0h29v29H0z"/></clipPath></defs></svg></svg>
